<svg xmlns="http://www.w3.org/2000/svg" viewBox="0 0 800 420"><rect width="800" height="420" fill="#eee7df"/><path d="M70 320H730M90 280H710M110 240H690M130 200H670M150 160H650" stroke="#c6b9ad" stroke-width="2"/><path d="M170 330V90M250 330V90M330 330V90M410 330V90M490 330V90M570 330V90M650 330V90" stroke="#d2c7bd"/><polygon points="250,280 395,135 560,245 560,320 250,320" fill="#b88c64"/><polygon points="395,135 535,210 500,235 365,175" fill="#7d5e48"/><rect x="300" y="235" width="90" height="85" fill="#f5efe8"/><rect x="430" y="245" width="70" height="75" fill="#f5efe8"/><rect x="325" y="255" width="35" height="65" fill="#6f4f3d"/><rect x="445" y="260" width="38" height="30" fill="#8fb2bd"/><circle cx="610" cy="120" r="56" fill="#cfa776" opacity=".18"/></svg>