<svg xmlns="http://www.w3.org/2000/svg" viewBox="0 0 760 160" role="img" aria-labelledby="t d"><title id="t">Akmen Zirve Mimarlık İnşaat</title><desc id="d">Mor ve sarı dört parçalı yapı ikonu ile Akmen Zirve Mimarlık İnşaat yazısı</desc><defs><style>.p{fill:#514093}.y{fill:#e0b62e}.w{fill:none;stroke:#fff;stroke-width:8;stroke-linecap:round;stroke-linejoin:round}.k{fill:none;stroke:#171922;stroke-width:8;stroke-linecap:round;stroke-linejoin:round}.txt1{font:800 55px Arial,Helvetica,sans-serif;fill:#514093;letter-spacing:.5px}.txt2{font:800 31px Arial,Helvetica,sans-serif;fill:#514093;letter-spacing:3px}</style></defs><g transform="translate(10 10)"><path class="p" d="M0 18C0 8 8 0 18 0h48v66H0z"/><path class="y" d="M76 0h48c10 0 18 8 18 18v48H76z"/><path class="y" d="M0 76h66v66H18c-10 0-18-8-18-18z"/><path class="p" d="M76 76h66v48c0 10-8 18-18 18H76z"/><path class="w" d="M19 18l14 14m18 18l-14-14m-12 22l34-34M47 17l11 11-9 9-11-11z"/><path class="k" d="M92 43l18-15 18 15M98 42v17h24V42m-15 17V49h7v10"/><path class="k" d="M18 110h31m-25-2c1-11 8-19 16-19s15 8 16 19m-21-18v12m10-12v12"/><path class="w" d="M92 97h25l12 9v14h-18l-8-7H92zm25 9h11m-22 14v10m-8-10l-4 10"/></g><text x="175" y="68" class="txt1">AKMEN ZİRVE</text><text x="176" y="118" class="txt2">MİMARLIK İNŞAAT</text></svg>